<svg width="25" height="25" viewBox="0 0 25 25" fill="none" xmlns="http://www.w3.org/2000/svg">
<path d="M2.47803 16.2722C1.89209 16.8582 1.5625 17.6531 1.5625 18.4822V20.7034L0 23.4377L1.5625 25.0002L4.29688 23.4377H6.51807C7.34668 23.4377 8.1416 23.1086 8.72754 22.5227L14.9111 16.3401L8.66113 10.0901L2.47803 16.2722ZM23.627 1.37329C21.7974 -0.457764 18.8281 -0.457764 16.9985 1.37329L13.2344 5.13745L12.5947 4.4978C12.1338 4.03687 11.3911 4.04321 10.9375 4.4978L8.93701 6.49829C8.47949 6.95581 8.47949 7.698 8.93701 8.15552L16.8442 16.0627C17.3052 16.5237 18.0479 16.5173 18.5015 16.0627L20.502 14.0627C20.9595 13.6052 20.9595 12.863 20.502 12.4055L19.8623 11.7659L23.6265 8.00171C25.458 6.17163 25.458 3.20386 23.627 1.37329Z" fill="white"/>
</svg>
