<svg width="28" height="20" viewBox="0 0 28 20" fill="none" xmlns="http://www.w3.org/2000/svg">
<path d="M23.52 8.6875C23.6994 8.20982 23.8 7.6875 23.8 7.14286C23.8 4.77679 21.9188 2.85714 19.6 2.85714C18.7381 2.85714 17.9331 3.125 17.2681 3.58036C16.0563 1.4375 13.7944 0 11.2 0C7.3325 0 4.2 3.19643 4.2 7.14286C4.2 7.26339 4.20437 7.38393 4.20875 7.50446C1.75875 8.38393 0 10.7679 0 13.5714C0 17.1205 2.82187 20 6.3 20H22.4C25.4931 20 28 17.442 28 14.2857C28 11.5223 26.075 9.21429 23.52 8.6875ZM17.2113 11.4286H14.35V16.4286C14.35 16.8214 14.035 17.1429 13.65 17.1429H11.55C11.165 17.1429 10.85 16.8214 10.85 16.4286V11.4286H7.98875C7.36312 11.4286 7.0525 10.6607 7.49438 10.2098L12.1056 5.50446C12.3769 5.22768 12.8231 5.22768 13.0944 5.50446L17.7056 10.2098C18.1475 10.6607 17.8325 11.4286 17.2113 11.4286Z" fill="white"/>
</svg>
