<svg width="27" height="24" viewBox="0 0 27 24" fill="none" xmlns="http://www.w3.org/2000/svg">
<path d="M26.4198 11.25L23.9545 6.91072C24.0072 6.80362 24.0468 6.68307 24.0468 6.54912C24.0468 6.14732 23.7172 5.81248 23.3217 5.79908L20.5927 1.00445C20.6191 0.924096 20.6454 0.843746 20.6454 0.763397C20.6454 0.334849 20.3027 0 19.8939 0C19.6567 0 19.4589 0.10715 19.3139 0.281249H14.0669C13.935 0.1072 13.7373 5.002e-05 13.5 5.002e-05C13.2627 5.002e-05 13.0649 0.1072 12.9331 0.281299H7.71243C7.56738 0.1072 7.36967 5.002e-05 7.13234 5.002e-05C6.72368 5.002e-05 6.38087 0.334849 6.38087 0.763447C6.38087 0.843796 6.40726 0.937546 6.43364 1.0045L3.67824 5.86613C3.41463 5.98662 3.23001 6.24112 3.23001 6.54917C3.23001 6.57592 3.2432 6.60272 3.2432 6.62952L0.61966 11.2367C0.263712 11.3036 0 11.6117 0 11.9866C0 12.3482 0.250473 12.6563 0.593279 12.7366L3.3091 17.5045C3.28272 17.5849 3.26953 17.6518 3.26953 17.7456C3.26953 18.1072 3.52 18.4152 3.86281 18.4822L6.40726 22.9688C6.38087 23.0491 6.35454 23.1429 6.35454 23.2366C6.35454 23.6651 6.6973 24 7.10601 24C7.34329 24 7.54105 23.8928 7.67291 23.7322H12.9331C13.0649 23.8928 13.2759 23.9999 13.5 23.9999C13.7241 23.9999 13.935 23.8928 14.0669 23.7321H19.3403C19.4721 23.8794 19.6698 23.9731 19.8808 23.9731C20.3027 23.9731 20.6323 23.625 20.6323 23.2098C20.6323 23.1294 20.6191 23.0625 20.5927 22.9955L23.1372 18.4821C23.4799 18.4152 23.7305 18.1071 23.7305 17.7455C23.7305 17.6652 23.7173 17.5848 23.6909 17.5045L26.3935 12.7366C26.7363 12.6696 27 12.3616 27 11.9866C26.9999 11.625 26.7494 11.317 26.4198 11.25ZM6.88182 21.7366L4.73294 17.9464H6.88182V21.7366ZM6.88182 17.5446H4.73294C4.71975 17.4911 4.69337 17.4375 4.66704 17.3839L6.88182 15.0134V17.5446ZM6.88182 14.4241L4.40333 17.0893C4.33742 17.0625 4.27147 17.0223 4.20557 17.0089L1.46346 12.1875C1.48979 12.1205 1.48979 12.0535 1.48979 11.9866C1.48979 11.9197 1.48979 11.8661 1.4766 11.8125L4.03424 7.31252C4.16609 7.29912 4.2979 7.25892 4.41657 7.17857L6.88187 9.77681V14.4241H6.88182ZM6.88182 9.30801L4.62747 6.93752C4.69337 6.83037 4.73294 6.69647 4.73294 6.54917C4.73294 6.53577 4.71975 6.50897 4.71975 6.49557L6.88182 5.70538V9.30801ZM6.88182 5.27678L4.73294 6.06697L6.88182 2.29019V5.27678ZM22.9526 7.23217L22.9921 7.29912L21.2519 15.6562L18.1142 12.2946L22.9394 7.21877L22.9526 7.23217ZM13.6845 16.9553L14.2514 17.5446H13.1308L13.6845 16.9553ZM13.6714 16.3928L9.57131 12.1205L13.4868 7.90182L17.5737 12.2812L13.6714 16.3928ZM13.935 16.6875L17.8373 12.5759L21.1596 16.1384L20.8696 17.5446H14.7656L13.935 16.6875ZM19.5249 1.41969C19.5776 1.44649 19.6303 1.47329 19.6962 1.48669L22.5439 6.52237V6.54917C22.5439 6.69647 22.5834 6.83037 22.6493 6.93752L17.8505 12L13.7637 7.62057L19.5249 1.41969ZM19.0766 1.31254L13.4868 7.32592L10.6787 4.31253L18.8656 1.31254H19.0766ZM12.999 1.31254C13.1308 1.44644 13.3022 1.52679 13.5 1.52679C13.6978 1.52679 13.8691 1.44644 14.001 1.31254H17.6924L10.3887 3.99108L7.88381 1.31254H12.999ZM7.27739 1.59379L7.3301 1.48669C7.37458 1.47515 7.41857 1.46173 7.46196 1.44649L9.98002 4.13848L7.27739 5.12953V1.59379ZM7.27739 5.55808L10.27 4.45988L13.2099 7.62057L9.29446 11.8259L7.27739 9.72326V5.55808ZM7.27739 10.192L9.07032 12.0803L7.27739 13.9955V10.192ZM7.27739 14.5848L9.34717 12.3616L13.4209 16.6607L12.5771 17.5446H7.27739V14.5848ZM7.62014 22.6875C7.54105 22.6071 7.44877 22.5536 7.3301 22.5134L7.27739 22.433V17.9464H12.1948L7.68605 22.6875H7.62014ZM14.0142 22.6875C13.8823 22.567 13.6978 22.4732 13.5 22.4732C13.3022 22.4732 13.1177 22.567 12.9858 22.6875H8.23971L12.7485 17.9464H14.6337L19.1425 22.6875H14.0142ZM19.9204 22.0982L19.7094 22.4732C19.6435 22.4866 19.5908 22.5133 19.538 22.5401L15.148 17.9464H20.7774L19.9204 22.0982ZM20.5531 20.9866L21.186 17.9464H22.267L20.5531 20.9866ZM22.267 17.5446H21.2651L21.4892 16.4866L22.3329 17.3973C22.3066 17.4375 22.2802 17.491 22.267 17.5446ZM25.5233 12.1741L22.7943 17.0089C22.7284 17.0357 22.6625 17.0625 22.5966 17.1026L21.5814 16.0044L23.2821 7.80807L25.5365 11.7724C25.5233 11.8393 25.497 11.9062 25.497 11.9866C25.497 12.0535 25.5102 12.1071 25.5233 12.1741Z" fill="white"/>
</svg>
