<svg width="25" height="25" viewBox="0 0 25 25" fill="none" xmlns="http://www.w3.org/2000/svg">
<path d="M2.34375 17.1875C1.0498 17.1875 0 18.2373 0 19.5312C0 20.8252 1.0498 21.875 2.34375 21.875C3.6377 21.875 4.6875 20.8252 4.6875 19.5312C4.6875 18.2373 3.6377 17.1875 2.34375 17.1875ZM22.6562 17.1875C21.3623 17.1875 20.3125 18.2373 20.3125 19.5312C20.3125 20.8252 21.3623 21.875 22.6562 21.875C23.9502 21.875 25 20.8252 25 19.5312C25 18.2373 23.9502 17.1875 22.6562 17.1875ZM16.8457 17.7295C17.0703 17.0215 16.9238 16.2256 16.3672 15.6641C15.8057 15.1025 15.0098 14.9609 14.3018 15.1807C13.96 14.5215 13.291 14.0576 12.5 14.0576C11.709 14.0576 11.04 14.5215 10.6982 15.1807C9.99023 14.9561 9.19434 15.1025 8.63281 15.6641C8.07129 16.2256 7.92969 17.0215 8.14941 17.7295C7.49023 18.0713 7.02637 18.7402 7.02637 19.5312C7.02637 20.3223 7.49023 20.9912 8.14941 21.333C7.9248 22.041 8.07129 22.8369 8.63281 23.3984C9.0332 23.7988 9.55566 23.999 10.083 23.999C10.293 23.999 10.498 23.9453 10.6982 23.877C11.04 24.5361 11.709 25 12.5 25C13.291 25 13.96 24.5361 14.3018 23.877C14.502 23.9404 14.707 23.999 14.917 23.999C15.4443 23.999 15.9668 23.7988 16.3672 23.3984C16.9287 22.8369 17.0703 22.041 16.8457 21.333C17.5049 20.9912 17.9688 20.3223 17.9688 19.5312C17.9688 18.7402 17.5049 18.0713 16.8457 17.7295ZM25 10.9375C25 8.34961 22.9004 6.25 20.3125 6.25C20.2832 6.25 20.2588 6.25977 20.2344 6.25977C20.2881 6.00586 20.3125 5.74219 20.3125 5.46875C20.3125 3.31055 18.5645 1.5625 16.4062 1.5625C15.2051 1.5625 14.1455 2.11426 13.4277 2.96875C12.5195 1.21094 10.708 0 8.59375 0C5.57129 0 3.125 2.44629 3.125 5.46875C3.125 5.8252 3.16406 6.16699 3.22754 6.50391C1.35742 7.11914 0 8.8623 0 10.9375C0 13.5254 2.09961 15.625 4.6875 15.625H6.80664C6.98242 15.2344 7.2168 14.873 7.5293 14.5605C8.18848 13.9014 9.06738 13.5303 10.0098 13.5205C10.6689 12.876 11.5576 12.5 12.5 12.5C13.4424 12.5 14.3311 12.876 14.9902 13.5205C15.9326 13.5303 16.8115 13.9014 17.4707 14.5605C17.7832 14.873 18.0225 15.2344 18.1934 15.625H20.3125C22.9004 15.625 25 13.5254 25 10.9375Z" fill="white"/>
</svg>
