<svg width="30" height="30" viewBox="0 0 30 30" fill="none" xmlns="http://www.w3.org/2000/svg">
<g filter="url(#filter0_d_68_113)">
<path d="M9.86523 8.60791C9.67578 8.46631 9.48584 8.39551 9.29639 8.39551H8.44482V13.4966H9.29688C9.48633 13.4966 9.67627 13.4258 9.86572 13.2842C10.0552 13.1426 10.1499 12.9302 10.1499 12.6465V9.24561C10.1494 8.9624 10.0542 8.74951 9.86523 8.60791ZM23.7314 0H6.14355C4.96191 0 4.00293 0.956543 4 2.13867V19.7363C4.00293 20.9185 4.96191 21.875 6.14355 21.875H23.7314C24.9136 21.875 25.8721 20.9185 25.875 19.7363V2.13867C25.8721 0.956543 24.9131 0 23.7314 0ZM11.5293 12.6558C11.5293 13.5742 10.9624 14.9658 9.16797 14.9629H6.90234V6.88379H9.21582C10.9463 6.88379 11.5283 8.27344 11.5288 9.19238L11.5293 12.6558ZM16.4453 8.32666H13.8438V10.2026H15.4341V11.6465H13.8438V13.522H16.4458V14.9658H13.4097C12.8647 14.98 12.4116 14.5493 12.3979 14.0044V7.89551C12.3848 7.35107 12.8159 6.89893 13.3604 6.88525H16.4458L16.4453 8.32666ZM21.5059 13.9561C20.8613 15.4575 19.7065 15.1587 19.1895 13.9561L17.3081 6.88574H18.8984L20.3491 12.4385L21.793 6.88574H23.3838L21.5059 13.9561Z" fill="white"/>
</g>
<defs>
<filter id="filter0_d_68_113" x="0" y="0" width="29.875" height="29.875" filterUnits="userSpaceOnUse" color-interpolation-filters="sRGB">
<feFlood flood-opacity="0" result="BackgroundImageFix"/>
<feColorMatrix in="SourceAlpha" type="matrix" values="0 0 0 0 0 0 0 0 0 0 0 0 0 0 0 0 0 0 127 0" result="hardAlpha"/>
<feOffset dy="4"/>
<feGaussianBlur stdDeviation="2"/>
<feComposite in2="hardAlpha" operator="out"/>
<feColorMatrix type="matrix" values="0 0 0 0 0 0 0 0 0 0 0 0 0 0 0 0 0 0 0.25 0"/>
<feBlend mode="normal" in2="BackgroundImageFix" result="effect1_dropShadow_68_113"/>
<feBlend mode="normal" in="SourceGraphic" in2="effect1_dropShadow_68_113" result="shape"/>
</filter>
</defs>
</svg>
