<svg width="47" height="42" viewBox="0 0 47 42" fill="none" xmlns="http://www.w3.org/2000/svg">
<path fill-rule="evenodd" clip-rule="evenodd" d="M23.1634 20.4155H44.1084C44.8737 20.4185 45.6069 20.7242 46.1484 21.2662C46.6899 21.8082 46.996 22.5425 47 23.3095V39.0715C46.9978 39.8364 46.694 40.5694 46.1547 41.1107C45.6157 41.6509 44.886 41.9566 44.1237 41.9617C36.168 41.9617 28.2352 42 20.2795 42V23.1983C20.3101 22.4502 20.6281 21.7429 21.167 21.2242C21.7058 20.7056 22.4239 20.4158 23.1711 20.4155H23.1634ZM16.3246 21.4312H9.2409C9.35182 24.2755 10.3272 27.0967 12.0828 29.8987H16.3246V31.6965H13.3335C14.2521 32.8943 15.2514 34.0278 16.3246 35.0888V37.565C14.3834 35.8099 12.6426 33.8442 11.1342 31.7041H5.46958C6.72643 33.4029 8.26464 34.8732 10.0174 36.0509C11.0278 36.7335 12.1026 37.3151 13.2264 37.7874C13.2264 37.7874 13.2494 37.7874 13.2608 37.8142C14.2496 38.2328 15.2736 38.5625 16.3207 38.7993V40.6507C15.0271 40.391 13.7634 39.9992 12.5494 39.4816C12.5304 39.4781 12.513 39.4687 12.4997 39.4548C11.2805 38.9226 10.1117 38.2811 9.00759 37.5382C7.91947 36.8129 6.90713 35.9794 5.98594 35.0505C5.05572 34.1303 4.22378 33.1154 3.5036 32.0223C2.76376 30.9182 2.12983 29.7464 1.61029 28.5226C1.07614 27.28 0.672353 25.9851 0.405457 24.6588C-0.135152 21.9345 -0.135152 19.1302 0.405457 16.406C0.663337 15.09 1.05951 13.8051 1.58734 12.5728C1.58998 12.5543 1.59796 12.537 1.61029 12.523C2.13796 11.2994 2.77821 10.1278 3.52272 9.02329C4.24647 7.93282 5.07813 6.91828 6.00506 5.99509C6.9241 5.06377 7.93669 4.2301 9.02671 3.50737C10.1289 2.76672 11.2981 2.13146 12.5188 1.60995C13.7579 1.07674 15.0486 0.673393 16.3705 0.406337C19.0888 -0.135446 21.887 -0.135446 24.6054 0.406337C25.9185 0.664775 27.2006 1.0618 28.4303 1.59078C28.4489 1.59268 28.4664 1.60078 28.48 1.61378C29.6996 2.14514 30.8685 2.78665 31.9721 3.53037C33.0602 4.25568 34.0725 5.08914 34.9937 6.01809C35.9258 6.93171 36.7603 7.94016 37.4837 9.02712C38.2286 10.1314 38.8689 11.3031 39.3962 12.5268C39.9325 13.7739 40.3364 15.0741 40.601 16.406C40.6278 16.5363 40.6545 16.6705 40.6775 16.7893H38.8492V16.7509C38.6104 15.5416 38.245 14.3608 37.7591 13.2283C37.4542 12.5156 37.1094 11.8207 36.7264 11.1469H30.6908C31.7373 12.9057 32.5269 14.8059 33.0354 16.7893H31.188C30.6108 14.7875 29.7338 12.885 28.5871 11.1469H21.3849V16.8008H19.8549H19.591V11.1584H12.3888C10.5452 14.0307 9.50864 16.8557 9.27915 19.6335H16.3934C16.3551 19.8191 16.332 20.0076 16.3246 20.197V21.4312ZM4.29152 29.8987H9.99058C8.46387 27.3246 7.5905 24.4146 7.44704 21.4236H1.82066C1.86276 22.3879 1.97784 23.3477 2.1649 24.2946C2.4037 25.504 2.76908 26.6847 3.25498 27.8173C3.55964 28.5308 3.90575 29.2258 4.29152 29.8987ZM1.82066 19.6335H7.48529C7.75672 16.6299 8.71616 13.7296 10.2889 11.1584H4.29152C3.9055 11.8305 3.56062 12.5256 3.25881 13.2398C3.25881 13.2398 3.25881 13.2666 3.23203 13.2781C2.38762 15.2954 1.90965 17.4477 1.82066 19.6335ZM5.45811 9.36061H11.4402C13.3927 6.62002 15.6627 4.12122 18.2026 1.9166C17.6977 1.98177 17.2081 2.0546 16.7262 2.15426C15.5194 2.39358 14.3412 2.75975 13.2111 3.24671C12.092 3.72759 11.0191 4.31011 10.0059 4.98697C9.01742 5.65693 8.0998 6.42628 7.26727 7.28303C6.61562 7.92848 6.01581 8.62444 5.47341 9.36444L5.45811 9.36061ZM22.7733 1.93577C25.318 4.12715 27.5875 6.62038 29.5318 9.36061H35.5177C34.2643 7.66278 32.7301 6.1926 30.9815 5.0138C29.9718 4.33204 28.8984 3.75048 27.7762 3.27738C27.7762 3.27738 27.7494 3.27738 27.738 3.25054C26.6149 2.77503 25.446 2.41666 24.2497 2.18109C23.7563 2.08143 23.2667 2.0086 22.7733 1.94727V1.93577ZM21.3849 3.10488V9.36061H27.3325C25.5698 7.07604 23.5767 4.97972 21.3849 3.10488ZM19.591 9.36061V3.10488C17.3992 4.97972 15.4061 7.07604 13.6433 9.36061H19.591ZM39.3044 22.2324V36.4151L33.6589 33.9005L27.9598 36.6489V22.2324H23.1634C22.8814 22.2344 22.6115 22.3478 22.4124 22.5481C22.2133 22.7483 22.1011 23.0192 22.1001 23.3018V39.06C22.1011 39.3419 22.2136 39.612 22.4129 39.811C22.6122 40.01 22.8821 40.1218 23.1634 40.1217H44.1046C44.3849 40.1197 44.6533 40.0072 44.8515 39.8085C45.0498 39.6099 45.1621 39.341 45.1641 39.06V23.3095C45.1651 23.1691 45.1385 23.0298 45.0858 22.8996C45.0331 22.7695 44.9553 22.651 44.8569 22.551C44.7585 22.451 44.6415 22.3714 44.5124 22.3167C44.3833 22.262 44.2447 22.2334 44.1046 22.2324H39.3044ZM33.6359 23.7656L37.4608 27.8288H35.0855V30.3472H32.1863V27.8365H29.811L33.6359 23.7733V23.7656Z" fill="white"/>
</svg>
