<svg width="43" height="46" viewBox="0 0 43 46" fill="none" xmlns="http://www.w3.org/2000/svg">
<path fill-rule="evenodd" clip-rule="evenodd" d="M39.548 28.535L40.9738 29.9561C41.349 30.3301 41.349 30.9285 40.9738 31.3024L39.8106 32.4618C40.1108 33.0602 40.3735 33.6959 40.5236 34.3691H42.0244C42.5497 34.3691 43 34.8179 43 35.3415V37.361C43 37.8846 42.5497 38.3333 42.0244 38.3333H40.411C40.2234 38.9691 39.9232 39.6049 39.5855 40.1659L40.6361 41.213C41.0113 41.587 41.0113 42.1854 40.6361 42.5593L39.2103 43.9805C38.8351 44.3545 38.2347 44.3545 37.8595 43.9805L36.6963 42.8211C36.096 43.1203 35.4581 43.3821 34.7827 43.5317V45.0276C34.7827 45.5512 34.3325 46 33.8072 46H31.781C31.2557 46 30.8054 45.5512 30.8054 45.0276V43.3821C30.1675 43.1951 29.5297 42.8959 28.9668 42.5593L27.9162 43.6065C27.541 43.9805 26.9407 43.9805 26.5654 43.6065L25.1396 42.1854C24.7644 41.8114 24.7644 41.213 25.1396 40.839L26.3028 39.6797C26.0026 39.0813 25.74 38.4455 25.5899 37.7724H24.089C23.5637 37.7724 23.1134 37.3236 23.1134 36.8V34.7805C23.1134 34.2569 23.5637 33.8081 24.089 33.8081H25.7024C25.8901 33.1724 26.1902 32.5366 26.5279 31.9756L25.5148 30.9659C25.1396 30.5919 25.1396 29.9935 25.5148 29.6195L26.9407 28.1984C27.3159 27.8244 27.9162 27.8244 28.2914 28.1984L29.4546 29.3577C30.055 29.0585 30.6928 28.7967 31.3682 28.6472V27.1512C31.3682 26.6276 31.8185 26.1789 32.3438 26.1789H34.37C34.8953 26.1789 35.3456 26.6276 35.3456 27.1512V28.7593C35.9834 28.9463 36.6213 29.2455 37.1841 29.5821L38.2347 28.535C38.5349 28.161 39.1728 28.161 39.548 28.535ZM15.534 30.7415C15.0087 30.7415 14.596 30.2179 14.596 29.6195C14.596 28.9837 15.0087 28.4976 15.534 28.4976H20.1867C20.712 28.4976 21.1248 29.0211 21.1248 29.6195C21.1248 30.2553 20.712 30.7415 20.1867 30.7415H15.534ZM16.9223 41.9984C17.5602 41.9984 18.048 42.522 18.048 43.1203C18.048 43.7561 17.5227 44.2423 16.9223 44.2423H2.66405C1.95113 44.2423 1.27574 43.9431 0.787958 43.4569C0.300175 42.9707 0 42.335 0 41.587V2.65528C0 1.90732 0.300175 1.27154 0.787958 0.785366C1.27574 0.299187 1.91361 0 2.66405 0H35.1955C35.9084 0 36.5838 0.299187 37.0716 0.785366C37.5593 1.27154 37.8595 1.90732 37.8595 2.65528V20.7187C37.8595 21.3545 37.3342 21.8407 36.7339 21.8407C36.096 21.8407 35.6082 21.3171 35.6082 20.7187V2.65528C35.6082 2.54309 35.5707 2.46829 35.4956 2.3935C35.4206 2.3187 35.3456 2.2813 35.233 2.2813H2.66405C2.55148 2.2813 2.47644 2.3187 2.4014 2.3935C2.32635 2.43089 2.28883 2.54309 2.28883 2.65528V41.6618C2.28883 41.774 2.32635 41.8488 2.4014 41.9236C2.47644 41.9984 2.55148 42.0358 2.66405 42.0358H16.9223V41.9984ZM7.0541 27.7122H11.0689C11.2941 27.7122 11.4442 27.8618 11.4442 28.0862V31.5268C11.4442 31.7512 11.2941 31.9008 11.0689 31.9008H7.0541C6.82897 31.9008 6.67888 31.7512 6.67888 31.5268V28.0862C6.67888 27.8618 6.82897 27.7122 7.0541 27.7122ZM7.0541 7.92846H11.0689C11.2941 7.92846 11.4442 8.07805 11.4442 8.30244V11.7431C11.4442 11.9675 11.2941 12.1171 11.0689 12.1171H7.0541C6.82897 12.1171 6.67888 11.9675 6.67888 11.7431V8.30244C6.67888 8.07805 6.82897 7.92846 7.0541 7.92846ZM15.534 10.9577C15.0087 10.9577 14.596 10.4341 14.596 9.83577C14.596 9.2 15.0087 8.71382 15.534 8.71382H28.5541C29.0794 8.71382 29.4921 9.2374 29.4921 9.83577C29.4921 10.4715 29.0794 10.9577 28.5541 10.9577H15.534ZM8.21728 21.4667C7.95462 21.6537 7.61693 21.6163 7.35428 21.3545C7.31675 21.3171 7.31675 21.3171 7.27923 21.2797L6.07853 20.0455C5.81588 19.7837 5.89092 19.3724 6.1911 19.0732C6.5288 18.8114 6.97906 18.774 7.24171 19.0358L7.87958 19.7089L9.9808 18.026C10.2435 17.8016 10.6937 17.9138 10.9188 18.2504C11.1815 18.587 11.144 19.0732 10.8438 19.2976L8.21728 21.4667ZM14.8962 20.4943C14.3709 20.4943 13.9581 19.9707 13.9581 19.3724C13.9581 18.7366 14.3709 18.2504 14.8962 18.2504H27.9162C28.4415 18.2504 28.8543 18.774 28.8543 19.3724C28.8543 20.0081 28.4415 20.4943 27.9162 20.4943H14.8962ZM33.0567 32.1252C35.233 32.1252 37.034 33.8829 37.034 36.0894C37.034 38.2585 35.2705 40.0537 33.0567 40.0537C30.8805 40.0537 29.0794 38.2959 29.0794 36.0894C29.0794 33.8829 30.8805 32.1252 33.0567 32.1252Z" fill="white"/>
</svg>
