<svg width="56" height="57" viewBox="0 0 56 57" fill="none" xmlns="http://www.w3.org/2000/svg">
<path d="M41.1962 16.0036C42.1837 16.7122 43.112 17.5003 43.9719 18.36C46.3719 20.7693 48.1998 23.6898 49.3198 26.9046C48.117 26.3111 46.7973 25.9941 45.4569 25.9768H45.1608C44.231 24.0646 42.9896 22.3212 41.4876 20.8186C41.1546 20.4846 40.8076 20.1599 40.4514 19.8537C40.9869 19.1627 41.2768 18.3121 41.2748 17.4369C41.2761 16.9503 41.2498 16.464 41.1962 15.9804V16.0036ZM34.3865 28.5281C34.9134 28.623 35.3982 28.8791 35.7743 29.261C36.2684 29.7518 36.548 30.4192 36.5515 31.1165V37.1469C36.5491 37.8498 36.2695 38.5233 35.7738 39.0204C35.278 39.5174 34.6064 39.7978 33.9053 39.8002H33.7712L33.9978 43.0195C34.0026 43.1242 33.9679 43.2269 33.9007 43.3071C33.831 43.3871 33.7327 43.4364 33.6271 43.4442C33.5214 43.4521 33.4169 43.4178 33.3363 43.3489L29.219 39.6982H23.8156L26.4849 36.9752H32.1427C32.7379 36.9728 33.3078 36.7343 33.7282 36.312C34.1486 35.8896 34.3852 35.3176 34.3865 34.7208C34.3865 32.8143 34.5345 30.3465 34.3865 28.5049V28.5281ZM22.7007 31.7938C22.5706 31.7938 22.4459 31.742 22.354 31.6498C22.262 31.5576 22.2103 31.4325 22.2103 31.3021C22.2103 31.1717 22.262 31.0466 22.354 30.9544C22.4459 30.8622 22.5706 30.8104 22.7007 30.8104H27.4657C27.5957 30.8104 27.7205 30.8622 27.8124 30.9544C27.9044 31.0466 27.956 31.1717 27.956 31.3021C27.956 31.4325 27.9044 31.5576 27.8124 31.6498C27.7205 31.742 27.5957 31.7938 27.4657 31.7938H22.7007ZM22.7007 29.1172C22.5706 29.1172 22.4459 29.0654 22.354 28.9732C22.262 28.881 22.2103 28.7559 22.2103 28.6255C22.2103 28.4951 22.262 28.3701 22.354 28.2779C22.4459 28.1856 22.5706 28.1338 22.7007 28.1338H29.4549C29.585 28.1338 29.7097 28.1856 29.8017 28.2779C29.8936 28.3701 29.9453 28.4951 29.9453 28.6255C29.9453 28.7559 29.8936 28.881 29.8017 28.9732C29.7097 29.0654 29.585 29.1172 29.4549 29.1172H22.7007ZM21.3684 24.4275H30.704C31.0635 24.4277 31.4193 24.4992 31.7512 24.6377C32.083 24.7762 32.3843 24.979 32.6378 25.2346C33.1517 25.7485 33.4412 26.4459 33.4427 27.1736V33.204C33.4419 33.5636 33.3703 33.9196 33.2322 34.2515C33.0941 34.5834 32.8921 34.8847 32.6378 35.1383C32.3839 35.3931 32.0825 35.5951 31.7506 35.7328C31.4188 35.8705 31.0631 35.9412 30.704 35.9408H26.0501L21.9605 39.4662C21.8874 39.5294 21.7973 39.5696 21.7015 39.5817C21.6057 39.5938 21.5085 39.5772 21.422 39.5341C21.3356 39.491 21.2637 39.4233 21.2155 39.3394C21.1673 39.2556 21.1448 39.1593 21.1509 39.0627L21.3684 35.9408C21.0093 35.9444 20.6531 35.8765 20.3204 35.7412C19.9877 35.6058 19.685 35.4056 19.43 35.1522C19.1756 34.8986 18.9736 34.5973 18.8355 34.2654C18.6974 33.9335 18.6259 33.5775 18.625 33.2179V27.1875C18.6239 26.8248 18.6945 26.4655 18.8327 26.1303C18.9708 25.7951 19.1738 25.4907 19.43 25.2346C19.6829 24.9796 19.9834 24.777 20.3144 24.6385C20.6454 24.5001 21.0004 24.4283 21.3591 24.4275H21.3684ZM30.704 25.4155H21.3684C21.1381 25.4153 20.91 25.4606 20.6972 25.549C20.4845 25.6374 20.2912 25.767 20.1285 25.9304C19.801 26.261 19.6165 26.7076 19.615 27.1736V33.204C19.615 33.6702 19.7998 34.1174 20.1286 34.4471C20.4574 34.7768 20.9033 34.962 21.3684 34.962H21.9235C21.9883 34.9656 22.0518 34.982 22.1103 35.0103C22.1688 35.0387 22.2211 35.0784 22.2641 35.1272C22.3071 35.1759 22.3401 35.2328 22.361 35.2944C22.382 35.356 22.3905 35.4212 22.3861 35.4862L22.2057 37.9679L25.518 35.1151C25.6104 35.0234 25.735 34.9717 25.865 34.9713H30.704C30.9343 34.9713 31.1623 34.9258 31.375 34.8375C31.5877 34.7491 31.781 34.6196 31.9438 34.4564C32.1066 34.2931 32.2358 34.0993 32.3239 33.886C32.412 33.6727 32.4573 33.4441 32.4573 33.2132V27.1829C32.4573 26.952 32.412 26.7234 32.3239 26.5101C32.2358 26.2968 32.1066 26.103 31.9438 25.9397C31.781 25.7765 31.5877 25.647 31.375 25.5586C31.1623 25.4703 30.9343 25.4248 30.704 25.4248V25.4155ZM44.0182 40.6491C43.9278 40.5567 43.8429 40.4591 43.7637 40.3569C43.5787 40.0971 43.4029 39.8281 43.2317 39.559L42.3851 38.2091C42.1065 37.8521 41.9362 37.4221 41.8947 36.9706C41.8901 36.7827 41.9424 36.5979 42.0449 36.4405C42.1473 36.2831 42.295 36.1606 42.4684 36.0892C42.4406 35.5836 42.4175 35.0687 42.4175 34.5585C42.4175 34.2523 42.4175 33.9508 42.4175 33.6307C42.4489 33.4398 42.4969 33.252 42.5609 33.0694C42.7987 32.3028 43.3112 31.6517 43.9997 31.2418C44.2435 31.0871 44.5043 30.961 44.7769 30.866C45.2719 30.6805 45.0313 29.9383 45.5726 29.9383C46.8401 29.9012 48.9173 30.9866 49.7361 31.868C50.2511 32.4429 50.5447 33.183 50.5642 33.9554L50.4856 36.182C50.5979 36.2089 50.7006 36.2665 50.7823 36.3484C50.864 36.4302 50.9214 36.5332 50.9482 36.6459C51 37.051 50.9171 37.4618 50.7123 37.8148C50.7123 37.8148 50.7123 37.8149 50.7123 37.852L49.7223 39.4291C49.5078 39.7965 49.2746 40.1526 49.0237 40.496C48.723 40.8996 48.4732 40.83 48.7323 41.215C50.5827 43.7571 56 42.1428 56 47.2129H36.8337C36.8337 42.1474 42.2556 43.7571 44.1014 41.215C44.3143 40.8996 44.2587 40.9228 44.0182 40.6677V40.6491ZM7.1891 40.6491C7.09789 40.5588 7.01433 40.4611 6.93928 40.3569C6.74961 40.0971 6.57381 39.8281 6.40264 39.559L5.55142 38.1906C5.28061 37.8315 5.11987 37.4012 5.08881 36.9521C5.08008 36.7634 5.13078 36.5767 5.23374 36.4185C5.3367 36.2603 5.48668 36.1386 5.66245 36.0707C5.63007 35.5651 5.61157 35.0502 5.61157 34.5399C5.61157 34.2338 5.61157 33.9322 5.61157 33.6122C5.62779 33.4226 5.66029 33.2348 5.70871 33.0509C5.94648 32.2843 6.45904 31.6332 7.14746 31.2232C7.39289 31.0684 7.65521 30.9424 7.92929 30.8475C8.41966 30.6619 8.18373 29.9197 8.72499 29.9197C9.98794 29.8826 12.0697 30.9681 12.8886 31.8495C13.4056 32.423 13.6995 33.1639 13.7166 33.9369L13.6519 36.182C13.7642 36.2089 13.8669 36.2665 13.9486 36.3484C14.0303 36.4302 14.0877 36.5332 14.1145 36.6459C14.1556 37.0401 14.0731 37.4374 13.8786 37.7824C13.8786 37.7824 13.8786 37.7824 13.8786 37.8195L12.8886 39.4291C12.6741 39.7965 12.4409 40.1526 12.19 40.496C11.8893 40.8996 11.6441 40.83 11.8986 41.215C13.749 43.7571 19.1709 42.1428 19.1709 47.2129H0C0 42.1474 5.42652 43.7571 7.26774 41.215C7.48055 40.8996 7.42503 40.9228 7.1891 40.6677V40.6491ZM25.6522 11.3927C25.148 10.9288 24.5142 10.5577 24.4263 9.62068H24.3754C24.249 9.61794 24.1252 9.58451 24.0145 9.52327C23.8378 9.41424 23.7002 9.25184 23.6213 9.0594C23.4409 8.64191 23.2975 7.5379 23.7555 7.20391L23.6676 7.14824V7.02764C23.6676 6.80498 23.6676 6.53593 23.6398 6.25761C23.6398 5.21853 23.6028 3.96608 22.7747 3.71559L22.4185 3.60426L22.6683 3.32593C23.2808 2.54617 23.9774 1.83676 24.7455 1.21067C25.4275 0.623227 26.2474 0.219369 27.128 0.0370774C27.5421 -0.0298169 27.9658 -0.00599234 28.3699 0.106913C28.7739 0.219819 29.1489 0.419128 29.4688 0.691138C29.7 0.880465 29.9109 1.09345 30.098 1.32664C30.4655 1.36978 30.8199 1.48945 31.1386 1.67797C31.4572 1.86649 31.7331 2.11971 31.9484 2.42138C32.2245 2.79414 32.4313 3.21368 32.5591 3.65992C32.6909 4.11134 32.7456 4.58183 32.721 5.05154C32.6968 5.90542 32.3495 6.71807 31.7495 7.32451C31.8557 7.32485 31.9603 7.35027 32.0549 7.39873C32.199 7.49897 32.304 7.64619 32.3521 7.81534C32.4002 7.98448 32.3883 8.16511 32.3185 8.32648C32.2306 8.60944 32.115 8.93879 32.0086 9.21247C31.8744 9.58357 31.6848 9.65315 31.3147 9.61604C31.3147 10.5438 30.6346 10.8963 30.0702 11.4251C31.4581 14.0136 37.3195 12.3065 37.3195 17.4555H18.3521C18.3521 12.3065 24.0839 14.0831 25.6291 11.3927H25.6522ZM43.1577 51.1373C39.006 54.9103 33.6031 57 28 57C22.3968 57 16.994 54.9103 12.8423 51.1373H18.824C21.6374 52.6834 24.794 53.4939 28.0023 53.4939C31.2106 53.4939 34.3672 52.6834 37.1807 51.1373H43.1577ZM6.93928 26.232C8.4749 22.2527 11.098 18.7881 14.5077 16.2355C14.4707 16.619 14.4522 17.0318 14.4522 17.474C14.447 18.4094 14.7751 19.3158 15.3774 20.03C15.0767 20.2944 14.7807 20.5727 14.4985 20.8557C12.9298 22.4271 11.6461 24.2605 10.705 26.2737C10.0292 26.0809 9.33044 25.981 8.62784 25.9768C8.05334 25.9803 7.48204 26.063 6.93003 26.2227L6.93928 26.232Z" fill="white"/>
</svg>
