<svg width="25" height="26" viewBox="0 0 25 26" fill="none" xmlns="http://www.w3.org/2000/svg">
<path d="M8.92926 7.50488C7.2691 7.50488 5.91656 8.75977 5.91656 10.3223C5.91656 11.8701 7.2691 13.1396 8.92926 13.1396C10.5894 13.1396 11.942 11.8701 11.942 10.3223C11.942 8.75977 10.5894 7.50488 8.92926 7.50488ZM15.9312 7.50488C14.2711 7.50488 12.9185 8.75977 12.9185 10.3223C12.9185 11.8701 14.2711 13.1396 15.9312 13.1396C17.606 13.1396 18.9439 11.8701 18.9439 10.3223C18.9488 8.75977 17.606 7.50488 15.9312 7.50488ZM23.5777 11.8994L23.2847 12.1094V2.42676C23.2847 1.08887 22.2789 0 21.0386 0H3.50445C2.26422 0 1.25836 1.08887 1.25836 2.42676V12.1094C1.1607 12.041 1.0484 11.9678 0.950743 11.8994C0.213438 11.3818 -0.274843 12.0947 0.169493 12.7637C1.06305 13.8672 2.76227 15.2197 5.35992 16.2793C2.6109 25.6396 12.0689 27.1338 11.9175 22.3389C11.9175 22.3047 11.9322 19.5752 11.9322 17.6221C12.1812 17.6758 12.3912 17.7344 12.6011 17.7734C12.6011 19.7119 12.6158 22.3047 12.6158 22.3389C12.4644 27.1387 21.9224 25.6445 19.1734 16.2842C21.7662 15.2246 23.4703 13.8721 24.3638 12.7686C24.8082 12.0947 24.3199 11.3867 23.5777 11.8994ZM22.0884 12.8369C18.7242 14.6631 15.8238 14.3555 14.2466 14.2871C13.0894 14.2432 12.6548 14.7314 12.6011 15.5029C12.0982 15.127 11.6929 14.7461 11.6099 14.668C11.3609 14.4043 10.941 14.2773 10.2867 14.292C8.73883 14.3457 5.9068 14.6533 2.60113 12.9248V3.53027C2.60113 1.82617 3.0357 1.29883 4.58356 1.29883H20.0963C21.5757 1.29883 22.0933 1.92871 22.0933 3.53027V12.8369H22.0884Z" fill="white"/>
</svg>
