<svg width="20" height="21" viewBox="0 0 20 21" fill="none" xmlns="http://www.w3.org/2000/svg">
<path d="M20 10.0057C20 15.5286 15.5229 20.0057 10 20.0057C4.47714 20.0057 0 15.5286 0 10.0057C0 4.48287 4.47714 0.0057373 10 0.0057373C15.5229 0.0057373 20 4.48287 20 10.0057ZM8.84331 15.3007L16.2627 7.8813C16.5146 7.62937 16.5146 7.22086 16.2627 6.96892L15.3503 6.05654C15.0983 5.80457 14.6898 5.80457 14.4379 6.05654L8.3871 12.1073L5.56214 9.28231C5.3102 9.03037 4.90169 9.03037 4.64972 9.28231L3.73734 10.1947C3.4854 10.4466 3.4854 10.8551 3.73734 11.1071L7.93089 15.3006C8.18286 15.5526 8.59133 15.5526 8.84331 15.3007Z" fill="#10C9C3"/>
</svg>
